<?xml version="1.0" standalone="no"?>
<!DOCTYPE svg PUBLIC "-//W3C//DTD SVG 20010904//EN"
 "http://www.w3.org/TR/2001/REC-SVG-20010904/DTD/svg10.dtd">
<svg version="1.0" xmlns="http://www.w3.org/2000/svg"
 width="300.000000pt" height="300.000000pt" viewBox="0 0 300.000000 300.000000"
 preserveAspectRatio="xMidYMid meet">
<metadata>
Created by potrace 1.11, written by Peter Selinger 2001-2013
</metadata>
<g transform="translate(0.000000,300.000000) scale(0.100000,-0.100000)"
fill="#000000" stroke="none">
<path d="M1195 2875 c-194 -38 -312 -88 -505 -214 -359 -236 -641 -728 -644
-1127 -1 -81 2 -105 16 -120 11 -14 18 -45 21 -114 3 -52 10 -96 15 -98 5 -1
8 -11 5 -21 -6 -23 47 -179 97 -287 20 -44 65 -122 99 -173 33 -50 61 -95 61
-99 0 -4 55 -61 123 -128 210 -207 456 -344 720 -400 95 -20 479 -20 574 0
264 56 510 193 720 400 68 67 123 124 123 128 0 4 28 49 61 99 34 51 79 129
99 173 50 108 103 264 97 287 -3 10 0 20 5 21 5 2 12 46 15 98 3 69 10 100 21
114 23 25 21 191 -2 306 -104 494 -484 942 -936 1104 -214 77 -541 98 -785 51z
m-195 -855 l0 -120 -185 0 -185 0 0 -150 0 -150 160 0 160 0 0 -110 0 -110
-160 0 -160 0 0 -275 0 -275 -80 0 -80 0 0 655 0 655 265 0 265 0 0 -120z
m750 0 l0 -120 -185 0 -185 0 0 -150 0 -150 160 0 160 0 0 -110 0 -110 -160 0
-160 0 0 -275 0 -275 -80 0 -80 0 0 655 0 655 265 0 265 0 0 -120z m410 -82
c40 -112 76 -207 80 -211 4 -5 42 86 85 202 l78 211 88 0 89 0 -10 -26 c-6
-14 -60 -152 -122 -307 -61 -155 -111 -286 -111 -292 0 -5 57 -156 128 -335
70 -179 130 -331 132 -338 4 -10 -16 -12 -92 -10 l-97 3 -82 220 c-45 121 -86
219 -91 218 -4 -1 -45 -100 -90 -220 l-83 -218 -91 -3 -91 -3 11 28 c5 15 65
168 131 338 67 171 121 317 121 325 -1 9 -47 130 -103 270 -56 140 -111 276
-121 303 l-19 47 94 0 93 0 73 -202z"/>
</g>
</svg>
